<svg xmlns="http://www.w3.org/2000/svg" viewBox="0 0 100 100" preserveAspectRatio="xMidYMid" width="200" height="200" style="shape-rendering: auto; display: block; background: transparent;" xmlns:xlink="http://www.w3.org/1999/xlink"><g><g transform="rotate(0 50 50)">
  <rect fill="#dddddd" height="1" width="1" ry="0" rx="0" y="23.5" x="49.5">
    <animate repeatCount="indefinite" begin="-1.2719298245614035s" dur="1.3157894736842106s" keyTimes="0;1" values="1;0" attributeName="opacity"></animate>
  </rect>
</g><g transform="rotate(12 50 50)">
  <rect fill="#dddddd" height="1" width="1" ry="0" rx="0" y="23.5" x="49.5">
    <animate repeatCount="indefinite" begin="-1.2280701754385965s" dur="1.3157894736842106s" keyTimes="0;1" values="1;0" attributeName="opacity"></animate>
  </rect>
</g><g transform="rotate(24 50 50)">
  <rect fill="#dddddd" height="1" width="1" ry="0" rx="0" y="23.5" x="49.5">
    <animate repeatCount="indefinite" begin="-1.1842105263157894s" dur="1.3157894736842106s" keyTimes="0;1" values="1;0" attributeName="opacity"></animate>
  </rect>
</g><g transform="rotate(36 50 50)">
  <rect fill="#dddddd" height="1" width="1" ry="0" rx="0" y="23.5" x="49.5">
    <animate repeatCount="indefinite" begin="-1.1403508771929824s" dur="1.3157894736842106s" keyTimes="0;1" values="1;0" attributeName="opacity"></animate>
  </rect>
</g><g transform="rotate(48 50 50)">
  <rect fill="#dddddd" height="1" width="1" ry="0" rx="0" y="23.5" x="49.5">
    <animate repeatCount="indefinite" begin="-1.0964912280701753s" dur="1.3157894736842106s" keyTimes="0;1" values="1;0" attributeName="opacity"></animate>
  </rect>
</g><g transform="rotate(60 50 50)">
  <rect fill="#dddddd" height="1" width="1" ry="0" rx="0" y="23.5" x="49.5">
    <animate repeatCount="indefinite" begin="-1.0526315789473684s" dur="1.3157894736842106s" keyTimes="0;1" values="1;0" attributeName="opacity"></animate>
  </rect>
</g><g transform="rotate(72 50 50)">
  <rect fill="#dddddd" height="1" width="1" ry="0" rx="0" y="23.5" x="49.5">
    <animate repeatCount="indefinite" begin="-1.0087719298245614s" dur="1.3157894736842106s" keyTimes="0;1" values="1;0" attributeName="opacity"></animate>
  </rect>
</g><g transform="rotate(84 50 50)">
  <rect fill="#dddddd" height="1" width="1" ry="0" rx="0" y="23.5" x="49.5">
    <animate repeatCount="indefinite" begin="-0.9649122807017544s" dur="1.3157894736842106s" keyTimes="0;1" values="1;0" attributeName="opacity"></animate>
  </rect>
</g><g transform="rotate(96 50 50)">
  <rect fill="#dddddd" height="1" width="1" ry="0" rx="0" y="23.5" x="49.5">
    <animate repeatCount="indefinite" begin="-0.9210526315789473s" dur="1.3157894736842106s" keyTimes="0;1" values="1;0" attributeName="opacity"></animate>
  </rect>
</g><g transform="rotate(108 50 50)">
  <rect fill="#dddddd" height="1" width="1" ry="0" rx="0" y="23.5" x="49.5">
    <animate repeatCount="indefinite" begin="-0.8771929824561403s" dur="1.3157894736842106s" keyTimes="0;1" values="1;0" attributeName="opacity"></animate>
  </rect>
</g><g transform="rotate(120 50 50)">
  <rect fill="#dddddd" height="1" width="1" ry="0" rx="0" y="23.5" x="49.5">
    <animate repeatCount="indefinite" begin="-0.8333333333333333s" dur="1.3157894736842106s" keyTimes="0;1" values="1;0" attributeName="opacity"></animate>
  </rect>
</g><g transform="rotate(132 50 50)">
  <rect fill="#dddddd" height="1" width="1" ry="0" rx="0" y="23.5" x="49.5">
    <animate repeatCount="indefinite" begin="-0.7894736842105263s" dur="1.3157894736842106s" keyTimes="0;1" values="1;0" attributeName="opacity"></animate>
  </rect>
</g><g transform="rotate(144 50 50)">
  <rect fill="#dddddd" height="1" width="1" ry="0" rx="0" y="23.5" x="49.5">
    <animate repeatCount="indefinite" begin="-0.7456140350877193s" dur="1.3157894736842106s" keyTimes="0;1" values="1;0" attributeName="opacity"></animate>
  </rect>
</g><g transform="rotate(156 50 50)">
  <rect fill="#dddddd" height="1" width="1" ry="0" rx="0" y="23.5" x="49.5">
    <animate repeatCount="indefinite" begin="-0.7017543859649122s" dur="1.3157894736842106s" keyTimes="0;1" values="1;0" attributeName="opacity"></animate>
  </rect>
</g><g transform="rotate(168 50 50)">
  <rect fill="#dddddd" height="1" width="1" ry="0" rx="0" y="23.5" x="49.5">
    <animate repeatCount="indefinite" begin="-0.6578947368421052s" dur="1.3157894736842106s" keyTimes="0;1" values="1;0" attributeName="opacity"></animate>
  </rect>
</g><g transform="rotate(180 50 50)">
  <rect fill="#dddddd" height="1" width="1" ry="0" rx="0" y="23.5" x="49.5">
    <animate repeatCount="indefinite" begin="-0.6140350877192983s" dur="1.3157894736842106s" keyTimes="0;1" values="1;0" attributeName="opacity"></animate>
  </rect>
</g><g transform="rotate(192 50 50)">
  <rect fill="#dddddd" height="1" width="1" ry="0" rx="0" y="23.5" x="49.5">
    <animate repeatCount="indefinite" begin="-0.5701754385964912s" dur="1.3157894736842106s" keyTimes="0;1" values="1;0" attributeName="opacity"></animate>
  </rect>
</g><g transform="rotate(204 50 50)">
  <rect fill="#dddddd" height="1" width="1" ry="0" rx="0" y="23.5" x="49.5">
    <animate repeatCount="indefinite" begin="-0.5263157894736842s" dur="1.3157894736842106s" keyTimes="0;1" values="1;0" attributeName="opacity"></animate>
  </rect>
</g><g transform="rotate(216 50 50)">
  <rect fill="#dddddd" height="1" width="1" ry="0" rx="0" y="23.5" x="49.5">
    <animate repeatCount="indefinite" begin="-0.4824561403508772s" dur="1.3157894736842106s" keyTimes="0;1" values="1;0" attributeName="opacity"></animate>
  </rect>
</g><g transform="rotate(228 50 50)">
  <rect fill="#dddddd" height="1" width="1" ry="0" rx="0" y="23.5" x="49.5">
    <animate repeatCount="indefinite" begin="-0.43859649122807015s" dur="1.3157894736842106s" keyTimes="0;1" values="1;0" attributeName="opacity"></animate>
  </rect>
</g><g transform="rotate(240 50 50)">
  <rect fill="#dddddd" height="1" width="1" ry="0" rx="0" y="23.5" x="49.5">
    <animate repeatCount="indefinite" begin="-0.39473684210526316s" dur="1.3157894736842106s" keyTimes="0;1" values="1;0" attributeName="opacity"></animate>
  </rect>
</g><g transform="rotate(252 50 50)">
  <rect fill="#dddddd" height="1" width="1" ry="0" rx="0" y="23.5" x="49.5">
    <animate repeatCount="indefinite" begin="-0.3508771929824561s" dur="1.3157894736842106s" keyTimes="0;1" values="1;0" attributeName="opacity"></animate>
  </rect>
</g><g transform="rotate(264 50 50)">
  <rect fill="#dddddd" height="1" width="1" ry="0" rx="0" y="23.5" x="49.5">
    <animate repeatCount="indefinite" begin="-0.30701754385964913s" dur="1.3157894736842106s" keyTimes="0;1" values="1;0" attributeName="opacity"></animate>
  </rect>
</g><g transform="rotate(276 50 50)">
  <rect fill="#dddddd" height="1" width="1" ry="0" rx="0" y="23.5" x="49.5">
    <animate repeatCount="indefinite" begin="-0.2631578947368421s" dur="1.3157894736842106s" keyTimes="0;1" values="1;0" attributeName="opacity"></animate>
  </rect>
</g><g transform="rotate(288 50 50)">
  <rect fill="#dddddd" height="1" width="1" ry="0" rx="0" y="23.5" x="49.5">
    <animate repeatCount="indefinite" begin="-0.21929824561403508s" dur="1.3157894736842106s" keyTimes="0;1" values="1;0" attributeName="opacity"></animate>
  </rect>
</g><g transform="rotate(300 50 50)">
  <rect fill="#dddddd" height="1" width="1" ry="0" rx="0" y="23.5" x="49.5">
    <animate repeatCount="indefinite" begin="-0.17543859649122806s" dur="1.3157894736842106s" keyTimes="0;1" values="1;0" attributeName="opacity"></animate>
  </rect>
</g><g transform="rotate(312 50 50)">
  <rect fill="#dddddd" height="1" width="1" ry="0" rx="0" y="23.5" x="49.5">
    <animate repeatCount="indefinite" begin="-0.13157894736842105s" dur="1.3157894736842106s" keyTimes="0;1" values="1;0" attributeName="opacity"></animate>
  </rect>
</g><g transform="rotate(324 50 50)">
  <rect fill="#dddddd" height="1" width="1" ry="0" rx="0" y="23.5" x="49.5">
    <animate repeatCount="indefinite" begin="-0.08771929824561403s" dur="1.3157894736842106s" keyTimes="0;1" values="1;0" attributeName="opacity"></animate>
  </rect>
</g><g transform="rotate(336 50 50)">
  <rect fill="#dddddd" height="1" width="1" ry="0" rx="0" y="23.5" x="49.5">
    <animate repeatCount="indefinite" begin="-0.043859649122807015s" dur="1.3157894736842106s" keyTimes="0;1" values="1;0" attributeName="opacity"></animate>
  </rect>
</g><g transform="rotate(348 50 50)">
  <rect fill="#dddddd" height="1" width="1" ry="0" rx="0" y="23.5" x="49.5">
    <animate repeatCount="indefinite" begin="0s" dur="1.3157894736842106s" keyTimes="0;1" values="1;0" attributeName="opacity"></animate>
  </rect>
</g><g></g></g><!-- [ldio] generated by https://loading.io --></svg>