<svg xmlns="http://www.w3.org/2000/svg" viewBox="0 0 100 100" preserveAspectRatio="xMidYMid" width="150" height="150" style="shape-rendering: auto; display: block; background: transparent;" xmlns:xlink="http://www.w3.org/1999/xlink"><g><g transform="rotate(0 50 50)">
  <rect fill="#8d56da" height="16" width="1" ry="0" rx="0" y="11" x="49.5">
    <animate repeatCount="indefinite" begin="-1.0294117647058825s" dur="1.1764705882352942s" keyTimes="0;1" values="1;0" attributeName="opacity"></animate>
  </rect>
</g><g transform="rotate(45 50 50)">
  <rect fill="#da56c3" height="16" width="1" ry="0" rx="0" y="11" x="49.5">
    <animate repeatCount="indefinite" begin="-0.8823529411764706s" dur="1.1764705882352942s" keyTimes="0;1" values="1;0" attributeName="opacity"></animate>
  </rect>
</g><g transform="rotate(90 50 50)">
  <rect fill="#8d56da" height="16" width="1" ry="0" rx="0" y="11" x="49.5">
    <animate repeatCount="indefinite" begin="-0.7352941176470589s" dur="1.1764705882352942s" keyTimes="0;1" values="1;0" attributeName="opacity"></animate>
  </rect>
</g><g transform="rotate(135 50 50)">
  <rect fill="#da56c3" height="16" width="1" ry="0" rx="0" y="11" x="49.5">
    <animate repeatCount="indefinite" begin="-0.5882352941176471s" dur="1.1764705882352942s" keyTimes="0;1" values="1;0" attributeName="opacity"></animate>
  </rect>
</g><g transform="rotate(180 50 50)">
  <rect fill="#8d56da" height="16" width="1" ry="0" rx="0" y="11" x="49.5">
    <animate repeatCount="indefinite" begin="-0.4411764705882353s" dur="1.1764705882352942s" keyTimes="0;1" values="1;0" attributeName="opacity"></animate>
  </rect>
</g><g transform="rotate(225 50 50)">
  <rect fill="#da56c3" height="16" width="1" ry="0" rx="0" y="11" x="49.5">
    <animate repeatCount="indefinite" begin="-0.29411764705882354s" dur="1.1764705882352942s" keyTimes="0;1" values="1;0" attributeName="opacity"></animate>
  </rect>
</g><g transform="rotate(270 50 50)">
  <rect fill="#8d56da" height="16" width="1" ry="0" rx="0" y="11" x="49.5">
    <animate repeatCount="indefinite" begin="-0.14705882352941177s" dur="1.1764705882352942s" keyTimes="0;1" values="1;0" attributeName="opacity"></animate>
  </rect>
</g><g transform="rotate(315 50 50)">
  <rect fill="#da56c3" height="16" width="1" ry="0" rx="0" y="11" x="49.5">
    <animate repeatCount="indefinite" begin="0s" dur="1.1764705882352942s" keyTimes="0;1" values="1;0" attributeName="opacity"></animate>
  </rect>
</g><g></g></g><!-- [ldio] generated by https://loading.io --></svg>